<svg id="Layer_1" data-name="Layer 1" xmlns="http://www.w3.org/2000/svg" xmlns:xlink="http://www.w3.org/1999/xlink" viewBox="0 0 1920 835.7"><defs><style>.cls-1{fill:url(#linear-gradient);}.cls-2{fill:url(#linear-gradient-2);}.cls-3{fill:url(#linear-gradient-3);}</style><linearGradient id="linear-gradient" y1="131.13" x2="1920" y2="131.13" gradientTransform="matrix(1, 0, 0, -1, 0, 869.33)" gradientUnits="userSpaceOnUse"><stop offset="0" stop-color="#000084"/><stop offset="0.09" stop-color="#000087"/><stop offset="0.16" stop-color="#000092"/><stop offset="0.23" stop-color="#0000a4"/><stop offset="0.27" stop-color="#0000b0"/><stop offset="0.34" stop-color="#00b"/><stop offset="0.47" stop-color="#0000ce"/><stop offset="0.57" stop-color="#0000d5"/><stop offset="0.99" stop-color="#0000d7"/><stop offset="1" stop-color="#0000d7"/></linearGradient><linearGradient id="linear-gradient-2" y1="411.22" x2="1920" y2="411.22" gradientUnits="userSpaceOnUse"><stop offset="0.2" stop-color="#0000b7"/><stop offset="0.67" stop-color="#0909ff"/><stop offset="0.75" stop-color="#1414ff"/><stop offset="0.82" stop-color="#2525ff"/><stop offset="0.89" stop-color="#3b3bff"/><stop offset="0.93" stop-color="#5757ff"/><stop offset="0.96" stop-color="#77f"/><stop offset="1" stop-color="#9d9dff"/><stop offset="1" stop-color="#c8c8ff"/><stop offset="1" stop-color="#f6f6ff"/><stop offset="1" stop-color="#fff"/></linearGradient><linearGradient id="linear-gradient-3" x1="5.33" y1="409.25" x2="1852.38" y2="409.25" gradientTransform="matrix(1, 0, 0, -1, 0, 869.33)" gradientUnits="userSpaceOnUse"><stop offset="0" stop-color="#000079"/><stop offset="0" stop-color="#000083"/><stop offset="0.09" stop-color="#00008a"/><stop offset="0.22" stop-color="#00009c"/><stop offset="0.29" stop-color="#0000b2"/><stop offset="0.36" stop-color="#0000c3"/><stop offset="0.46" stop-color="#0000ce"/><stop offset="0.59" stop-color="#0000d5"/><stop offset="0.96" stop-color="#0000d7"/></linearGradient></defs><rect class="cls-1" y="636.7" width="1920" height="203"/><path class="cls-2" d="M1920,414.3V602H0V436.68H166A145.23,145.23,0,0,0,194,459c93.7,57.3,211.6-17,336.6-66.4,73.8-29.1,150-49.6,225.2-29.2a234.88,234.88,0,0,1,30.3,10.5c107,45.7,107.4,139.7,191,138,117-2.3,158-187.2,311-195,32.9-1.7,53.8,5.7,81.3,4.9a156.25,156.25,0,0,0,40.7-6.9c82.2-24.7,87.3-82.6,137-93,83.1-17.5,149.5,127.4,232.7,191.6,25,19.3,51.4,31.3,80.3,29.4C1884.8,441.4,1903.7,430.1,1920,414.3Z"/><path class="cls-3" d="M1920,353.8V652.7H0v-220a922.54,922.54,0,0,1,110.7-47.3c135.6-47.1,230.8-36.9,298.3-10.7,56.9,22.1,80.5,50.2,121.6,68.6A201.53,201.53,0,0,0,578,457.7c71.8,12.9,125.6-9.8,177.7-43.5C823,370.6,887.7,308.5,985,280.7c147.4-42.1,267.6,23.7,384.3,91.9,123.6,72.3,243.4,147.3,387.7,100.1,7.9-2.6,15.5-5.4,22.7-8.4C1843.4,437.6,1883.3,395.1,1920,353.8Z"/></svg>